DBRep_DrawableShape

CASCADE Topology V1, (c) Matra-Datavision
Locations 1
1
              1               0               0               0 
              0               1               0               0 
              0               0               1               0 
Curve2ds 6
1 0 10.198039027185569 1 0 
2 0 0 1 0 -0 1 1.9999999999999996
1 6.2831853071795862 -0 0 1 
1 0 -0 0 1 
1 0 0 1 0 
2 0 0 1 0 -0 1 4
Curves 3
2 0 0 10 0 0 1 1 0 -0 -0 1 0 1.9999999999999996
1 4 -9.7971743931788257e-016 0 -0.19611613513818407 4.8034599431625377e-017 0.98058067569092022 
2 0 0 0 0 0 1 1 0 -0 -0 1 0 4
Polygon3D 0
PolygonOnTriangulations 6
26 1 3 4 5 6 7 8 9 10 11 12 13 14 15 16 17 18 19 20 21 22 23 24 25 26 2 
p 0.0455304586744638 1 0 0.251327412287183 0.502654824574367 0.75398223686155 1.00530964914873 1.25663706143592 1.5079644737231 1.75929188601028 2.01061929829747 2.26194671058465 2.51327412287183 2.76460153515902 3.0159289474462 3.26725635973338 3.51858377202057 3.76991118430775 4.02123859659493 4.27256600888212 4.5238934211693 4.77522083345649 5.02654824574367 5.27787565803085 5.52920307031804 5.78053048260522 6.03185789489241 6.28318530717959 
26 1 2 3 4 5 6 7 8 9 10 11 12 13 14 15 16 17 18 19 20 21 22 23 24 25 1 
p 0.0455304586744638 1 0 0.251327412287183 0.502654824574367 0.75398223686155 1.00530964914873 1.25663706143592 1.5079644737231 1.75929188601028 2.01061929829747 2.26194671058465 2.51327412287183 2.76460153515902 3.0159289474462 3.26725635973338 3.51858377202057 3.76991118430775 4.02123859659493 4.27256600888212 4.5238934211693 4.77522083345649 5.02654824574367 5.27787565803085 5.52920307031804 5.78053048260522 6.03185789489241 6.28318530717959 
2 27 2 
p 0.0455304586744638 1 0 10.1980390271856 
2 28 1 
p 0.0455304586744638 1 0 10.1980390271856 
59 28 29 30 31 32 33 34 35 36 37 38 39 40 41 42 43 44 45 46 47 48 49 50 51 52 53 54 55 56 57 58 59 60 61 62 63 64 65 66 67 68 69 70 71 72 73 74 75 76 77 78 79 80 81 82 83 84 85 27 
p 0.0455304586744638 1 0 0.108330781158269 0.216661562316537 0.324992343474806 0.433323124633075 0.541653905791344 0.649984686949612 0.758315468107881 0.86664624926615 0.974977030424419 1.08330781158269 1.19163859274096 1.29996937389922 1.40830015505749 1.51663093621576 1.62496171737403 1.7332924985323 1.84162327969057 1.94995406084884 2.05828484200711 2.16661562316538 2.27494640432364 2.38327718548191 2.49160796664018 2.59993874779845 2.70826952895672 2.81660031011499 2.92493109127326 3.03326187243153 3.14159265358979 3.24992343474806 3.35825421590633 3.4665849970646 3.57491577822287 3.68324655938114 3.79157734053941 3.89990812169768 4.00823890285594 4.11656968401421 4.22490046517248 4.33323124633075 4.44156202748902 4.54989280864729 4.65822358980556 4.76655437096383 4.87488515212209 4.98321593328036 5.09154671443863 5.1998774955969 5.30820827675517 5.41653905791344 5.52486983907171 5.63320062022998 5.74153140138824 5.84986218254651 5.95819296370478 6.06652374486305 6.17485452602132 6.28318530717959 
59 1 2 3 4 5 6 7 8 9 10 11 12 13 14 15 16 17 18 19 20 21 22 23 24 25 26 27 28 29 30 31 32 33 34 35 36 37 38 39 40 41 42 43 44 45 46 47 48 49 50 51 52 53 54 55 56 57 58 1 
p 0.0455304586744638 1 0 0.108330781158269 0.216661562316537 0.324992343474806 0.433323124633075 0.541653905791344 0.649984686949612 0.758315468107881 0.86664624926615 0.974977030424419 1.08330781158269 1.19163859274096 1.29996937389922 1.40830015505749 1.51663093621576 1.62496171737403 1.7332924985323 1.84162327969057 1.94995406084884 2.05828484200711 2.16661562316538 2.27494640432364 2.38327718548191 2.49160796664018 2.59993874779845 2.70826952895672 2.81660031011499 2.92493109127326 3.03326187243153 3.14159265358979 3.24992343474806 3.35825421590633 3.4665849970646 3.57491577822287 3.68324655938114 3.79157734053941 3.89990812169768 4.00823890285594 4.11656968401421 4.22490046517248 4.33323124633075 4.44156202748902 4.54989280864729 4.65822358980556 4.76655437096383 4.87488515212209 4.98321593328036 5.09154671443863 5.1998774955969 5.30820827675517 5.41653905791344 5.52486983907171 5.63320062022998 5.74153140138824 5.84986218254651 5.95819296370478 6.06652374486305 6.17485452602132 6.28318530717959 
Surfaces 3
3 0 0 0 0 0 1 1 0 -0 -0 1 0 4
-0.19739555984988078
1 0 0 10 0 0 1 1 0 -0 -0 1 0 
1 0 0 0 0 0 1 1 0 -0 -0 1 0 
Triangulations 3
261 435 1 0.0360648056794261
2 -4.89858719658941e-016 10 2 -4.89858719658941e-016 10 1.93716632225726 0.497379774329709 10 1.75261336008773 0.96350734820343 10 1.45793725484282 1.36909421185738 10 1.07165358995799 1.68865585100403 10 0.618033988749895 1.90211303259031 10 0.125581039058627 1.99605345685654 10 -0.374762629171449 1.96457450145738 10 -0.851558583130144 1.80965410493204 10 -1.27484797949738 1.54102648555158 10 -1.61803398874989 1.17557050458495 10 -1.8595529717765 0.736249105369357 10 -1.98422940262896 0.25066646712861 10 -1.98422940262896 -0.250666467128607 10 -1.8595529717765 -0.736249105369354 10 -1.6180339887499 -1.17557050458494 10 -1.27484797949738 -1.54102648555158 10 -0.851558583130146 -1.80965410493204 10 -0.374762629171449 -1.96457450145738 10 0.125581039058627 -1.99605345685654 10 0.618033988749896 -1.90211303259031 10 1.07165358995799 -1.68865585100403 10 1.45793725484282 -1.36909421185738 10 1.75261336008773 -0.963507348203427 10 1.93716632225726 -0.497379774329705 10 4 -9.79717439317883e-016 0 4 -9.79717439317883e-016 0 3.97655182861744 0.432476073695767 0 3.90648222284035 0.859881760844096 0 3.79061268473121 1.27720612054392 0 3.63030167868383 1.67955640624106 0 3.42742870467036 2.06221542870809 0 3.18437226282258 2.42069686077506 0 2.90398196769252 2.75079783541369 0 2.58954513912731 3.04864822051055 0 2.24474826144953 3.31075599262756 0 1.87363376279916 3.53404817778409 0 1.48055262135966 3.71590687926717 0 1.07011335411688 3.85419997007689 0 0.647127986211058 3.9473060901661 0 0.21655563434167 3.9941336554045 0 -0.216555634341671 3.9941336554045 0 -0.64712798621106 3.9473060901661 0 -1.07011335411688 3.85419997007689 0 -1.48055262135966 3.71590687926717 0 -1.87363376279916 3.53404817778409 0 -2.24474826144953 3.31075599262756 0 -2.58954513912731 3.04864822051055 0 -2.90398196769252 2.75079783541369 0 -3.18437226282258 2.42069686077506 0 -3.42742870467036 2.06221542870809 0 -3.63030167868383 1.67955640624106 0 -3.79061268473121 1.27720612054392 0 -3.90648222284035 0.859881760844094 0 -3.97655182861744 0.432476073695764 0 -4 -3.06285495914156e-015 0 -3.97655182861744 -0.43247607369577 0 -3.90648222284035 -0.8598817608441 0 -3.79061268473121 -1.27720612054392 0 -3.63030167868383 -1.67955640624106 0 -3.42742870467035 -2.06221542870809 0 -3.18437226282257 -2.42069686077506 0 -2.90398196769252 -2.7507978354137 0 -2.58954513912731 -3.04864822051055 0 -2.24474826144953 -3.31075599262756 0 -1.87363376279916 -3.53404817778409 0 -1.48055262135965 -3.71590687926717 0 -1.07011335411688 -3.85419997007689 0 -0.647127986211055 -3.94730609016611 0 -0.216555634341665 -3.9941336554045 0 0.216555634341674 -3.9941336554045 0 0.647127986211061 -3.9473060901661 0 1.07011335411689 -3.85419997007689 0 1.48055262135966 -3.71590687926716 0 1.87363376279916 -3.53404817778409 0 2.24474826144953 -3.31075599262756 0 2.58954513912731 -3.04864822051054 0 2.90398196769253 -2.75079783541369 0 3.18437226282258 -2.42069686077506 0 3.42742870467036 -2.06221542870808 0 3.63030167868383 -1.67955640624105 0 3.79061268473121 -1.27720612054391 0 3.90648222284035 -0.859881760844091 0 3.97655182861744 -0.432476073695763 0 3.60994171074764 1.11351954777453 1.11111111111111 3.12134648074931 2.12809799712924 1.11111111111111 3.39759219835072 1.04801839790544 2.22222222222222 2.35540591813299 2.95358560043478 1.11111111111111 2.93773786423465 2.00291576200399 2.22222222222222 3.1852426859538 0.982517248036347 3.33333333333333 1.38017720316194 3.51663416154477 1.11111111111111 2.21685262883105 2.77984527099744 2.22222222222222 2.75412924771998 1.87773352687874 3.33333333333333 2.97289317355688 0.917016098167258 4.44444444444444 0.282313686882047 3.76721434490668 1.11111111111111 1.29899030885829 3.30977332851273 2.22222222222222 2.07829933952911 2.6061049415601 3.33333333333333 2.57052063120532 1.75255129175349 4.44444444444444 -0.840634639390522 3.68306100157578 1.11111111111111 2.76054366115996 0.851514948298168 5.55555555555556 0.265706999418397 3.54561350108864 2.22222222222222 1.21780341455465 3.10291249548068 3.33333333333333 1.93974605022717 2.43236461212276 4.44444444444444 -1.88888888888889 3.27165152540788 1.11111111111111 2.38691201469065 1.62736905662824 5.55555555555556 -0.791185542955785 3.46641035442426 2.22222222222222 2.54819414876304 0.786013798429078 6.66666666666667 0.249100311954747 3.3240126572706 3.33333333333333 1.13661652025101 2.89605166244864 4.44444444444444 -2.76930707135712 2.56954145380125 1.11111111111111 1.80119276092523 2.25862428268542 5.55555555555556 -1.77777777777778 3.079201435678 2.22222222222222 2.20330339817599 1.50218682150299 6.66666666666667 -0.741736446521048 3.24975970727275 3.33333333333333 2.33584463636612 0.720512648559988 7.77777777777778 0.232493624491097 3.10241181345256 4.44444444444444 -3.40366016763136 1.63911634777744 1.11111111111111 1.05542962594736 2.68919082941659 5.55555555555556 -2.60640665539494 2.41839195651882 2.22222222222222 1.66263947162329 2.08488395324808 6.66666666666667 -1.66666666666667 2.88675134594813 3.33333333333333 2.01969478166132 1.37700458637774 7.77777777777778 -0.692287350086312 3.03310906012123 4.44444444444444 2.1234951239692 0.655011498690898 8.88888888888889 -3.73558312129493 0.563048561109993 1.11111111111111 0.215886937027448 2.88081096963452 5.55555555555556 -3.20344486365305 1.54269773908465 2.22222222222222 0.97424273164372 2.48232999638454 6.66666666666667 -2.44350623943275 2.2672424592364 3.33333333333333 1.52408618232135 1.91114362381074 7.77777777777778 -1.55555555555556 2.69430125621825 4.44444444444444 1.83608616514666 1.25182235125249 8.88888888888889 -3.73558312129493 -0.563048561109991 1.11111111111111 -0.642838253651575 2.81645841296971 5.55555555555556 -3.51584293768935 0.529928057515288 2.22222222222222 0.199280249563798 2.65921012581648 6.66666666666667 -3.00322955967473 1.44627913039186 3.33333333333333 0.893055837340077 2.2754691633525 7.77777777777778 -2.28060582347057 2.11609296195397 4.44444444444444 1.38553289301941 1.7374032943734 8.88888888888889 -3.40366016763136 -1.63911634777744 1.11111111111111 -1.44444444444445 2.50185116648838 5.55555555555556 -3.51584293768935 -0.529928057515285 2.22222222222222 -0.593389157216839 2.5998077658182 6.66666666666667 -3.29610275408376 0.496807553920582 3.33333333333333 0.182673562100148 2.43760928199844 7.77777777777778 -2.80301425569641 1.34986052169907 4.44444444444444 0.811868943036433 2.06860833032045 8.88888888888889 -2.76930707135712 -2.56954145380125 1.11111111111111 -2.11770540750839 1.96494346467154 5.55555555555556 -3.20344486365305 -1.54269773908465 2.22222222222222 -1.33333333333333 2.3094010767585 6.66666666666667 -3.29610275408376 -0.49680755392058 3.33333333333333 -0.543940060782102 2.38315711866668 7.77777777777778 -3.07636257047818 0.463687050325877 4.44444444444444 0.166066874636498 2.2160084381804 8.88888888888889 -1.88888888888889 -3.27165152540788 1.11111111111111 -2.6027989517181 1.25344191300628 5.55555555555556 -2.60640665539494 -2.41839195651882 2.22222222222222 -1.9548049915462 1.81379396738912 6.66666666666667 -3.00322955967473 -1.44627913039186 3.33333333333333 -1.22222222222222 2.11695098702863 7.77777777777778 -3.07636257047818 -0.463687050325875 4.44444444444444 -0.494490964347366 2.16650647151516 8.88888888888889 -0.840634639390522 -3.68306100157578 1.11111111111111 -2.85662238687259 0.430566546731171 5.55555555555556 -1.77777777777778 -3.079201435678 2.22222222222222 -2.40258364773978 1.15702330431349 6.66666666666667 -2.44350623943276 -2.2672424592364 3.33333333333333 -1.79190457558402 1.66264447010669 7.77777777777778 -2.80301425569642 -1.34986052169907 4.44444444444444 -1.11111111111111 1.92450089729875 8.88888888888889 0.282313686882048 -3.76721434490668 1.11111111111111 -2.85662238687259 -0.430566546731169 5.55555555555556 -0.791185542955785 -3.46641035442426 2.22222222222222 -2.63688220326701 0.397446043136466 6.66666666666667 -1.66666666666667 -2.88675134594813 3.33333333333333 -2.20236834376147 1.0606046956207 7.77777777777778 -2.28060582347057 -2.11609296195397 4.44444444444444 -1.62900415962184 1.51149497282427 8.88888888888889 1.38017720316194 -3.51663416154477 1.11111111111111 -2.6027989517181 -1.25344191300628 5.55555555555556 0.265706999418398 -3.54561350108864 2.22222222222222 -2.63688220326701 -0.397446043136464 6.66666666666667 -0.741736446521049 -3.24975970727275 3.33333333333333 -2.41714201966143 0.36432553954176 7.77777777777778 -1.55555555555556 -2.69430125621825 4.44444444444444 -2.00215303978315 0.964186086927907 8.88888888888889 2.355405918133 -2.95358560043478 1.11111111111111 -2.11770540750839 -1.96494346467154 5.55555555555556 1.29899030885829 -3.30977332851273 2.22222222222222 -2.40258364773978 -1.15702330431349 6.66666666666667 0.249100311954748 -3.3240126572706 3.33333333333333 -2.41714201966143 -0.364325539541759 7.77777777777778 -0.692287350086312 -3.03310906012123 4.44444444444444 -2.19740183605584 0.331205035947055 8.88888888888889 3.12134648074932 -2.12809799712924 1.11111111111111 -1.44444444444445 -2.50185116648838 5.55555555555556 2.21685262883105 -2.77984527099744 2.22222222222222 -1.9548049915462 -1.81379396738912 6.66666666666667 1.21780341455465 -3.10291249548068 3.33333333333333 -2.20236834376147 -1.0606046956207 7.77777777777778 0.232493624491098 -3.10241181345256 4.44444444444444 -2.19740183605584 -0.331205035947053 8.88888888888889 3.60994171074764 -1.11351954777452 1.11111111111111 -0.642838253651575 -2.81645841296971 5.55555555555556 2.93773786423465 -2.00291576200399 2.22222222222222 -1.33333333333333 -2.3094010767585 6.66666666666667 2.07829933952911 -2.6061049415601 3.33333333333333 -1.79190457558402 -1.66264447010669 7.77777777777778 1.13661652025101 -2.89605166244864 4.44444444444444 -2.00215303978315 -0.964186086927906 8.88888888888889 0.215886937027448 -2.88081096963452 5.55555555555556 3.39759219835072 -1.04801839790543 2.22222222222222 -0.593389157216839 -2.5998077658182 6.66666666666667 2.75412924771998 -1.87773352687874 3.33333333333333 -1.22222222222222 -2.11695098702863 7.77777777777778 1.93974605022717 -2.43236461212276 4.44444444444444 -1.62900415962184 -1.51149497282426 8.88888888888889 1.05542962594736 -2.68919082941659 5.55555555555556 0.199280249563798 -2.65921012581648 6.66666666666667 3.1852426859538 -0.982517248036343 3.33333333333333 -0.543940060782102 -2.38315711866668 7.77777777777778 2.57052063120532 -1.75255129175349 4.44444444444444 -1.11111111111111 -1.92450089729875 8.88888888888889 1.80119276092523 -2.25862428268542 5.55555555555556 0.974242731643721 -2.48232999638454 6.66666666666667 0.182673562100148 -2.43760928199844 7.77777777777778 2.97289317355688 -0.917016098167254 4.44444444444444 -0.494490964347366 -2.16650647151516 8.88888888888889 2.38691201469065 -1.62736905662824 5.55555555555556 1.66263947162329 -2.08488395324808 6.66666666666667 0.893055837340078 -2.2754691633525 7.77777777777778 0.166066874636499 -2.2160084381804 8.88888888888889 2.76054366115996 -0.851514948298164 5.55555555555556 2.20330339817599 -1.50218682150299 6.66666666666667 1.52408618232135 -1.91114362381074 7.77777777777778 0.811868943036434 -2.06860833032045 8.88888888888889 2.54819414876304 -0.786013798429075 6.66666666666667 2.01969478166132 -1.37700458637774 7.77777777777778 1.38553289301941 -1.7374032943734 8.88888888888889 2.33584463636612 -0.720512648559985 7.77777777777778 1.83608616514666 -1.25182235125249 8.88888888888889 2.1234951239692 -0.655011498690896 8.88888888888889 3.84545321309772 0.579608812907345 0.555555555555556 3.73558312129493 0.563048561109992 1.11111111111111 3.62571302949214 0.54648830931264 1.66666666666667 3.51584293768935 0.529928057515287 2.22222222222222 3.40597284588655 0.513367805717934 2.77777777777778 2.41714201966143 0.36432553954176 7.77777777777778 2.30727192785863 0.347765287744407 8.33333333333333 3.84545321309772 -0.579608812907341 0.555555555555556 3.73558312129493 -0.563048561109989 1.11111111111111 3.62571302949214 -0.546488309312636 1.66666666666667 3.51584293768935 -0.529928057515283 2.22222222222222 2.52701211146422 -0.38088579133911 7.22222222222222 2.41714201966143 -0.364325539541757 7.77777777777778 2.30727192785863 -0.347765287744405 8.33333333333333 2.71461033677099 0.20343192142971 6.38888888888889 3.26861244631609 -0.244948640088834 3.61111111111111 0 10.1980390271856 6.28318530717959 10.1980390271856 0.251327412287183 10.1980390271856 0.502654824574367 10.1980390271856 0.75398223686155 10.1980390271856 1.00530964914873 10.1980390271856 1.25663706143592 10.1980390271856 1.5079644737231 10.1980390271856 1.75929188601028 10.1980390271856 2.01061929829747 10.1980390271856 2.26194671058465 10.1980390271856 2.51327412287183 10.1980390271856 2.76460153515902 10.1980390271856 3.0159289474462 10.1980390271856 3.26725635973338 10.1980390271856 3.51858377202057 10.1980390271856 3.76991118430775 10.1980390271856 4.02123859659493 10.1980390271856 4.27256600888212 10.1980390271856 4.5238934211693 10.1980390271856 4.77522083345649 10.1980390271856 5.02654824574367 10.1980390271856 5.27787565803085 10.1980390271856 5.52920307031804 10.1980390271856 5.78053048260522 10.1980390271856 6.03185789489241 10.1980390271856 6.28318530717959 0 0 0 0.108330781158269 0 0.216661562316537 0 0.324992343474806 0 0.433323124633075 0 0.541653905791344 0 0.649984686949612 0 0.758315468107881 0 0.86664624926615 0 0.974977030424419 0 1.08330781158269 0 1.19163859274096 0 1.29996937389922 0 1.40830015505749 0 1.51663093621576 0 1.62496171737403 0 1.7332924985323 0 1.84162327969057 0 1.94995406084884 0 2.05828484200711 0 2.16661562316538 0 2.27494640432364 0 2.38327718548191 0 2.49160796664018 0 2.59993874779845 0 2.70826952895672 0 2.81660031011499 0 2.92493109127326 0 3.03326187243153 0 3.14159265358979 0 3.24992343474806 0 3.35825421590633 0 3.4665849970646 0 3.57491577822287 0 3.68324655938114 0 3.79157734053941 0 3.89990812169768 0 4.00823890285594 0 4.11656968401421 0 4.22490046517248 0 4.33323124633075 0 4.44156202748902 0 4.54989280864729 0 4.65822358980556 0 4.76655437096383 0 4.87488515212209 0 4.98321593328036 0 5.09154671443863 0 5.1998774955969 0 5.30820827675517 0 5.41653905791344 0 5.52486983907171 0 5.63320062022998 0 5.74153140138824 0 5.84986218254651 0 5.95819296370478 0 6.06652374486305 0 6.17485452602132 0 0.299199300341885 1.13311544746506 0.59839860068377 1.13311544746506 0.299199300341885 2.26623089493013 0.897597901025655 1.13311544746506 0.59839860068377 2.26623089493013 0.299199300341885 3.39934634239519 1.19679720136754 1.13311544746506 0.897597901025655 2.26623089493013 0.59839860068377 3.39934634239519 0.299199300341885 4.53246178986025 1.49599650170943 1.13311544746506 1.19679720136754 2.26623089493013 0.897597901025655 3.39934634239519 0.59839860068377 4.53246178986025 1.79519580205131 1.13311544746506 0.299199300341885 5.66557723732532 1.49599650170943 2.26623089493013 1.19679720136754 3.39934634239519 0.897597901025655 4.53246178986025 2.0943951023932 1.13311544746506 0.59839860068377 5.66557723732532 1.79519580205131 2.26623089493013 0.299199300341885 6.79869268479038 1.49599650170943 3.39934634239519 1.19679720136754 4.53246178986025 2.39359440273508 1.13311544746506 0.897597901025655 5.66557723732532 2.0943951023932 2.26623089493013 0.59839860068377 6.79869268479038 1.79519580205131 3.39934634239519 0.299199300341885 7.93180813225544 1.49599650170943 4.53246178986025 2.69279370307697 1.13311544746506 1.19679720136754 5.66557723732532 2.39359440273508 2.26623089493013 0.897597901025655 6.79869268479038 2.0943951023932 3.39934634239519 0.59839860068377 7.93180813225544 1.79519580205131 4.53246178986025 0.299199300341885 9.06492357972051 2.99199300341885 1.13311544746506 1.49599650170943 5.66557723732532 2.69279370307697 2.26623089493013 1.19679720136754 6.79869268479038 2.39359440273508 3.39934634239519 0.897597901025655 7.93180813225544 2.0943951023932 4.53246178986025 0.59839860068377 9.06492357972051 3.29119230376074 1.13311544746506 1.79519580205131 5.66557723732532 2.99199300341885 2.26623089493013 1.49599650170943 6.79869268479038 2.69279370307697 3.39934634239519 1.19679720136754 7.93180813225544 2.39359440273508 4.53246178986025 0.897597901025655 9.06492357972051 3.59039160410262 1.13311544746506 2.0943951023932 5.66557723732532 3.29119230376074 2.26623089493013 1.79519580205131 6.79869268479038 2.99199300341885 3.39934634239519 1.49599650170943 7.93180813225544 2.69279370307697 4.53246178986025 1.19679720136754 9.06492357972051 3.88959090444451 1.13311544746506 2.39359440273508 5.66557723732532 3.59039160410262 2.26623089493013 2.0943951023932 6.79869268479038 3.29119230376074 3.39934634239519 1.79519580205131 7.93180813225544 2.99199300341885 4.53246178986025 1.49599650170943 9.06492357972051 4.18879020478639 1.13311544746506 2.69279370307697 5.66557723732532 3.88959090444451 2.26623089493013 2.39359440273508 6.79869268479038 3.59039160410262 3.39934634239519 2.0943951023932 7.93180813225544 3.29119230376074 4.53246178986025 1.79519580205131 9.06492357972051 4.48798950512828 1.13311544746506 2.99199300341885 5.66557723732532 4.18879020478639 2.26623089493013 2.69279370307697 6.79869268479038 3.88959090444451 3.39934634239519 2.39359440273508 7.93180813225544 3.59039160410262 4.53246178986025 2.0943951023932 9.06492357972051 4.78718880547016 1.13311544746506 3.29119230376074 5.66557723732532 4.48798950512828 2.26623089493013 2.99199300341885 6.79869268479038 4.18879020478639 3.39934634239519 2.69279370307697 7.93180813225544 3.88959090444451 4.53246178986025 2.39359440273508 9.06492357972051 5.08638810581205 1.13311544746506 3.59039160410262 5.66557723732532 4.78718880547016 2.26623089493013 3.29119230376074 6.79869268479038 4.48798950512828 3.39934634239519 2.99199300341885 7.93180813225544 4.18879020478639 4.53246178986025 2.69279370307697 9.06492357972051 5.38558740615393 1.13311544746506 3.88959090444451 5.66557723732532 5.08638810581205 2.26623089493013 3.59039160410262 6.79869268479038 4.78718880547016 3.39934634239519 3.29119230376074 7.93180813225544 4.48798950512828 4.53246178986025 2.99199300341885 9.06492357972051 5.68478670649582 1.13311544746506 4.18879020478639 5.66557723732532 5.38558740615393 2.26623089493013 3.88959090444451 6.79869268479038 5.08638810581205 3.39934634239519 3.59039160410262 7.93180813225544 4.78718880547016 4.53246178986025 3.29119230376074 9.06492357972051 5.9839860068377 1.13311544746506 4.48798950512828 5.66557723732532 5.68478670649582 2.26623089493013 4.18879020478639 6.79869268479038 5.38558740615393 3.39934634239519 3.88959090444451 7.93180813225544 5.08638810581205 4.53246178986025 3.59039160410262 9.06492357972051 4.78718880547016 5.66557723732532 5.9839860068377 2.26623089493013 4.48798950512828 6.79869268479038 5.68478670649582 3.39934634239519 4.18879020478639 7.93180813225544 5.38558740615393 4.53246178986025 3.88959090444451 9.06492357972051 5.08638810581205 5.66557723732532 4.78718880547016 6.79869268479038 5.9839860068377 3.39934634239519 4.48798950512828 7.93180813225544 5.68478670649582 4.53246178986025 4.18879020478639 9.06492357972051 5.38558740615393 5.66557723732532 5.08638810581205 6.79869268479038 4.78718880547016 7.93180813225544 5.9839860068377 4.53246178986025 4.48798950512828 9.06492357972051 5.68478670649582 5.66557723732532 5.38558740615393 6.79869268479038 5.08638810581205 7.93180813225544 4.78718880547016 9.06492357972051 5.9839860068377 5.66557723732532 5.68478670649582 6.79869268479038 5.38558740615393 7.93180813225544 5.08638810581205 9.06492357972051 5.9839860068377 6.79869268479038 5.68478670649582 7.93180813225544 5.38558740615393 9.06492357972051 5.9839860068377 7.93180813225544 5.68478670649582 9.06492357972051 5.9839860068377 9.06492357972051 0.149599650170943 0.566557723732532 0.149599650170943 1.13311544746506 0.149599650170943 1.6996731711976 0.149599650170943 2.26623089493013 0.149599650170943 2.83278861866266 0.149599650170943 7.93180813225544 0.149599650170943 8.49836585598797 6.13358565700864 0.566557723732532 6.13358565700864 1.13311544746506 6.13358565700864 1.6996731711976 6.13358565700864 2.26623089493013 6.13358565700864 7.36525040852291 6.13358565700864 7.93180813225544 6.13358565700864 8.49836585598797 0.0747998250854713 6.51541382292411 6.20838548209412 3.68262520426146 186 178 168 90 88 86 187 179 177 187 177 185 90 86 87 188 180 178 189 13 12 91 88 90 189 12 181 189 171 179 189 181 171 189 179 187 92 38 39 92 39 40 190 182 76 190 76 77 190 77 78 190 78 79 92 89 38 191 172 180 191 183 172 93 87 89 93 89 92 191 180 188 93 90 87 94 91 90 192 184 182 94 90 93 193 175 183 193 185 175 95 91 94 194 186 184 96 40 41 194 184 192 96 41 42 96 42 43 195 187 185 195 185 193 96 92 40 196 178 186 196 188 178 196 186 194 197 14 13 197 15 14 197 13 189 197 189 187 97 93 92 198 190 79 198 79 80 198 80 81 198 81 82 98 93 97 98 94 93 99 95 94 199 191 188 200 182 190 100 43 44 100 44 45 100 45 46 200 192 182 201 191 199 201 193 183 201 183 191 100 96 43 202 192 200 202 194 192 203 193 201 102 96 100 203 195 193 102 97 92 204 194 202 102 92 96 204 196 194 103 97 102 205 16 15 103 98 97 205 187 195 205 15 197 205 197 187 206 198 82 104 98 103 104 99 94 206 82 83 104 94 98 207 199 188 105 46 47 105 47 48 105 48 49 207 188 196 208 200 190 105 100 46 208 190 198 208 198 206 106 101 95 209 201 199 106 95 99 210 200 208 107 102 100 210 202 200 211 201 209 211 203 201 108 101 106 212 202 210 212 204 202 213 17 16 109 103 102 213 195 203 109 102 107 213 16 205 213 205 195 110 104 103 214 207 196 111 49 50 214 196 204 111 50 51 214 204 212 215 208 206 111 105 49 216 209 199 216 199 207 112 106 99 217 210 208 217 208 215 112 99 104 113 100 105 218 211 209 113 107 100 219 212 210 220 18 17 220 203 211 114 108 106 220 213 203 220 211 218 220 17 213 221 214 212 115 107 113 115 109 107 222 207 214 222 214 221 222 216 207 116 108 114 117 103 109 117 109 115 223 217 215 117 110 103 118 111 51 224 209 216 118 51 52 224 216 222 118 52 53 224 218 209 118 53 54 225 210 217 225 219 210 225 217 223 226 19 18 226 18 220 226 220 218 227 221 212 119 112 104 227 212 219 119 104 110 120 105 111 120 113 105 228 222 221 229 224 222 229 222 228 121 106 112 121 114 106 230 225 223 121 112 119 231 19 226 231 20 19 231 218 224 231 226 218 122 113 120 122 115 113 232 219 225 232 227 219 123 116 114 232 225 230 123 114 121 233 221 227 233 228 221 124 117 115 234 228 233 124 115 122 125 3 1 125 4 3 234 229 228 126 118 54 235 21 20 235 22 21 235 229 234 235 20 231 126 54 55 235 224 229 126 55 56 235 231 224 126 56 57 236 232 230 237 227 232 237 232 236 237 233 227 127 110 117 238 233 237 127 119 110 238 234 233 239 235 234 128 120 111 239 23 22 239 22 235 128 111 118 240 237 236 128 118 126 241 237 240 129 121 119 241 238 237 242 23 239 242 24 23 242 239 234 242 234 238 130 122 120 243 241 240 244 238 241 244 241 243 244 25 24 131 123 121 244 24 242 131 121 129 244 242 238 245 244 243 245 25 244 245 26 25 245 2 26 132 124 122 246 31 86 246 28 29 132 122 130 246 29 30 246 30 31 133 5 4 133 4 125 247 246 86 133 116 123 133 125 116 247 28 246 134 57 58 248 247 86 134 58 59 248 86 88 134 59 60 248 28 247 249 248 88 249 28 248 134 126 57 250 91 95 250 249 88 250 28 249 250 88 91 135 117 124 135 127 117 251 108 116 252 125 1 252 1 251 252 251 116 252 116 125 253 206 83 136 128 126 253 83 84 253 84 85 253 85 27 254 253 27 254 206 253 137 127 135 137 119 127 255 254 27 137 129 119 255 206 254 255 215 206 138 128 136 138 120 128 138 130 120 256 223 215 139 131 129 256 255 27 256 215 255 139 129 137 257 240 236 140 132 130 257 243 240 258 257 2 258 243 257 259 245 243 141 123 131 259 2 245 259 243 258 141 6 5 259 258 2 260 101 108 260 28 250 141 133 123 260 251 1 141 5 133 260 108 251 260 250 95 260 1 28 260 95 101 261 236 230 142 134 60 261 27 2 261 2 257 142 60 61 261 256 27 142 61 62 261 257 236 142 62 63 261 223 256 261 230 223 143 124 132 143 135 124 144 126 134 144 136 126 145 137 135 146 138 136 146 136 144 147 139 137 147 137 145 148 138 146 148 140 130 148 130 138 149 7 6 149 131 139 149 141 131 149 6 141 150 142 63 150 63 64 150 64 65 151 143 132 151 132 140 152 134 142 152 144 134 153 135 143 153 145 135 154 144 152 154 146 144 155 147 145 155 145 153 156 146 154 156 148 146 157 7 149 157 8 7 157 9 8 157 139 147 157 149 139 158 150 65 158 65 66 158 66 67 158 67 68 159 140 148 159 151 140 159 148 156 160 152 142 160 142 150 160 150 158 161 153 143 161 143 151 162 154 152 162 152 160 163 153 161 163 155 153 164 154 162 164 156 154 165 10 9 165 9 157 165 147 155 165 157 147 166 158 68 166 68 69 166 69 70 166 70 71 167 159 156 168 160 158 169 159 167 169 151 159 169 161 151 170 160 168 170 162 160 171 161 169 171 163 161 172 162 170 172 164 162 173 165 155 173 11 10 173 10 165 173 155 163 174 166 71 174 71 72 174 72 73 174 73 74 175 156 164 175 167 156 176 168 158 176 158 166 177 169 167 178 170 168 179 171 169 179 169 177 180 172 170 180 170 178 86 31 32 181 11 173 181 12 11 181 163 171 181 173 163 182 174 74 182 74 75 182 75 76 87 86 32 87 32 33 87 33 34 87 34 35 183 175 164 183 164 172 184 176 166 184 174 182 89 87 35 184 166 174 89 35 36 89 36 37 89 37 38 185 167 175 185 177 167 186 168 176 186 176 184 
25 23 1 3.33066907387547e-016
2 -4.89858719658941e-016 10 1.93716632225726 0.497379774329709 10 1.75261336008773 0.96350734820343 10 1.45793725484282 1.36909421185738 10 1.07165358995799 1.68865585100403 10 0.618033988749895 1.90211303259031 10 0.125581039058627 1.99605345685654 10 -0.374762629171449 1.96457450145738 10 -0.851558583130144 1.80965410493204 10 -1.27484797949738 1.54102648555158 10 -1.61803398874989 1.17557050458495 10 -1.8595529717765 0.736249105369357 10 -1.98422940262896 0.25066646712861 10 -1.98422940262896 -0.250666467128607 10 -1.8595529717765 -0.736249105369354 10 -1.6180339887499 -1.17557050458494 10 -1.27484797949738 -1.54102648555158 10 -0.851558583130146 -1.80965410493204 10 -0.374762629171449 -1.96457450145738 10 0.125581039058627 -1.99605345685654 10 0.618033988749896 -1.90211303259031 10 1.07165358995799 -1.68865585100403 10 1.45793725484282 -1.36909421185738 10 1.75261336008773 -0.963507348203427 10 1.93716632225726 -0.497379774329705 10 2 0 1.93716632225726 0.497379774329709 1.75261336008773 0.96350734820343 1.45793725484282 1.36909421185738 1.07165358995799 1.68865585100403 0.618033988749895 1.90211303259031 0.125581039058627 1.99605345685654 -0.374762629171449 1.96457450145738 -0.851558583130144 1.80965410493204 -1.27484797949738 1.54102648555158 -1.61803398874989 1.17557050458495 -1.8595529717765 0.736249105369357 -1.98422940262896 0.25066646712861 -1.98422940262896 -0.250666467128607 -1.8595529717765 -0.736249105369354 -1.6180339887499 -1.17557050458494 -1.27484797949738 -1.54102648555158 -0.851558583130146 -1.80965410493204 -0.374762629171449 -1.96457450145738 0.125581039058627 -1.99605345685654 0.618033988749896 -1.90211303259031 1.07165358995799 -1.68865585100403 1.45793725484282 -1.36909421185738 1.75261336008773 -0.963507348203427 1.93716632225726 -0.497379774329705 18 16 17 14 15 16 20 18 19 20 16 18 13 14 16 13 16 20 21 13 20 22 12 13 22 13 21 24 11 12 24 22 23 24 12 22 9 10 11 25 11 24 8 9 11 1 8 11 1 11 25 6 7 8 3 1 2 3 6 8 3 8 1 5 6 3 4 5 3 
58 56 1 4.44089209850063e-016
4 -9.79717439317883e-016 0 3.97655182861744 0.432476073695767 0 3.90648222284035 0.859881760844096 0 3.79061268473121 1.27720612054392 0 3.63030167868383 1.67955640624106 0 3.42742870467036 2.06221542870809 0 3.18437226282258 2.42069686077506 0 2.90398196769252 2.75079783541369 0 2.58954513912731 3.04864822051055 0 2.24474826144953 3.31075599262756 0 1.87363376279916 3.53404817778409 0 1.48055262135966 3.71590687926717 0 1.07011335411688 3.85419997007689 0 0.647127986211058 3.9473060901661 0 0.21655563434167 3.9941336554045 0 -0.216555634341671 3.9941336554045 0 -0.64712798621106 3.9473060901661 0 -1.07011335411688 3.85419997007689 0 -1.48055262135966 3.71590687926717 0 -1.87363376279916 3.53404817778409 0 -2.24474826144953 3.31075599262756 0 -2.58954513912731 3.04864822051055 0 -2.90398196769252 2.75079783541369 0 -3.18437226282258 2.42069686077506 0 -3.42742870467036 2.06221542870809 0 -3.63030167868383 1.67955640624106 0 -3.79061268473121 1.27720612054392 0 -3.90648222284035 0.859881760844094 0 -3.97655182861744 0.432476073695764 0 -4 -3.06285495914156e-015 0 -3.97655182861744 -0.43247607369577 0 -3.90648222284035 -0.8598817608441 0 -3.79061268473121 -1.27720612054392 0 -3.63030167868383 -1.67955640624106 0 -3.42742870467035 -2.06221542870809 0 -3.18437226282257 -2.42069686077506 0 -2.90398196769252 -2.7507978354137 0 -2.58954513912731 -3.04864822051055 0 -2.24474826144953 -3.31075599262756 0 -1.87363376279916 -3.53404817778409 0 -1.48055262135965 -3.71590687926717 0 -1.07011335411688 -3.85419997007689 0 -0.647127986211055 -3.94730609016611 0 -0.216555634341665 -3.9941336554045 0 0.216555634341674 -3.9941336554045 0 0.647127986211061 -3.9473060901661 0 1.07011335411689 -3.85419997007689 0 1.48055262135966 -3.71590687926716 0 1.87363376279916 -3.53404817778409 0 2.24474826144953 -3.31075599262756 0 2.58954513912731 -3.04864822051054 0 2.90398196769253 -2.75079783541369 0 3.18437226282258 -2.42069686077506 0 3.42742870467036 -2.06221542870808 0 3.63030167868383 -1.67955640624105 0 3.79061268473121 -1.27720612054391 0 3.90648222284035 -0.859881760844091 0 3.97655182861744 -0.432476073695763 0 4 -8.88178419700125e-016 3.97655182861744 0.432476073695767 3.90648222284035 0.859881760844096 3.79061268473121 1.27720612054392 3.63030167868383 1.67955640624106 3.42742870467036 2.06221542870809 3.18437226282258 2.42069686077506 2.90398196769252 2.75079783541369 2.58954513912731 3.04864822051055 2.24474826144953 3.31075599262756 1.87363376279916 3.53404817778409 1.48055262135966 3.71590687926717 1.07011335411688 3.85419997007689 0.647127986211059 3.9473060901661 0.216555634341669 3.9941336554045 -0.216555634341671 3.9941336554045 -0.64712798621106 3.9473060901661 -1.07011335411688 3.85419997007689 -1.48055262135966 3.71590687926717 -1.87363376279916 3.53404817778409 -2.24474826144953 3.31075599262756 -2.58954513912731 3.04864822051055 -2.90398196769252 2.75079783541369 -3.18437226282258 2.42069686077506 -3.42742870467036 2.06221542870809 -3.63030167868383 1.67955640624106 -3.79061268473121 1.27720612054392 -3.90648222284035 0.859881760844094 -3.97655182861744 0.432476073695764 -4 -3.10862446895044e-015 -3.97655182861744 -0.43247607369577 -3.90648222284035 -0.859881760844099 -3.79061268473121 -1.27720612054392 -3.63030167868383 -1.67955640624106 -3.42742870467035 -2.06221542870809 -3.18437226282257 -2.42069686077506 -2.90398196769252 -2.7507978354137 -2.58954513912731 -3.04864822051055 -2.24474826144953 -3.31075599262756 -1.87363376279916 -3.53404817778409 -1.48055262135965 -3.71590687926717 -1.07011335411688 -3.85419997007689 -0.647127986211055 -3.94730609016611 -0.216555634341665 -3.9941336554045 0.216555634341674 -3.9941336554045 0.647127986211061 -3.9473060901661 1.07011335411689 -3.85419997007689 1.48055262135966 -3.71590687926716 1.87363376279916 -3.53404817778409 2.24474826144953 -3.31075599262756 2.58954513912731 -3.04864822051054 2.90398196769253 -2.75079783541369 3.18437226282258 -2.42069686077506 3.42742870467036 -2.06221542870808 3.63030167868383 -1.67955640624105 3.79061268473121 -1.27720612054391 3.90648222284035 -0.859881760844091 3.97655182861744 -0.432476073695763 17 18 19 17 19 20 58 24 53 58 23 24 58 20 23 58 54 56 39 36 37 58 53 54 39 37 38 58 56 57 40 35 36 15 16 17 40 36 39 2 58 1 14 17 20 14 15 17 33 34 35 33 35 40 3 20 58 3 58 2 42 40 41 3 14 20 12 3 4 12 13 14 12 14 3 43 40 42 43 33 40 31 32 33 31 33 43 6 4 5 30 43 44 10 11 12 30 31 43 7 12 4 7 10 12 7 4 6 8 9 10 8 10 7 47 28 29 47 29 30 47 44 45 47 45 46 47 30 44 48 27 28 48 28 47 25 27 48 25 26 27 53 25 48 53 24 25 53 48 49 53 49 50 53 50 51 53 51 52 20 21 22 20 22 23 56 54 55 

TShapes 14
Ve
1e-007
2 -4.89858719658941e-016 10
0 0

0101101
*
Ed
 1e-007 1 1 0
1  1 0 0 6.28318530717959
2  1 1 0 0 6.28318530717959
2  2 2 0 0 6.28318530717959
6  1 1 0
6  2 2 0
0

0101100
+14 0 -14 0 *
Ve
1e-007
4 -9.79717439317883e-016 0
0 0

0101101
*
Ed
 1e-007 1 1 0
1  2 0 0 10.1980390271856
3  3 4CN 1 0 0 10.1980390271856
7  3 4 1 0
0

0101000
-14 0 +12 0 *
Ed
 1e-007 1 1 0
1  3 0 0 6.28318530717959
2  5 1 0 0 6.28318530717959
2  6 3 0 0 6.28318530717959
6  5 1 0
6  6 3 0
0

0101100
+12 0 -12 0 *
Wi

0101000
-13 0 +11 0 +10 0 -11 0 *
Fa
0  1e-007 1 0
2  1
0101000
+9 0 *
Wi

0101000
+13 0 *
Fa
0  1e-007 2 0
2  2
0101000
+7 0 *
Wi

0101000
-10 0 *
Fa
0  1e-007 3 0
2  3
0101000
-5 0 *
Sh

0101100
+8 0 +6 0 -4 0 *
So

0100100
+3 0 *
Co

1100000
+2 1 *

+1 0 